<?xml version="1.0" encoding="utf-8" standalone="no"?>
<!DOCTYPE svg PUBLIC "-//W3C//DTD SVG 1.1//EN"
  "http://www.w3.org/Graphics/SVG/1.1/DTD/svg11.dtd">
<!-- Created with matplotlib (http://matplotlib.org/) -->
<svg height="295pt" version="1.1" viewBox="0 0 439 295" width="439pt" xmlns="http://www.w3.org/2000/svg" xmlns:xlink="http://www.w3.org/1999/xlink">
 <defs>
  <style type="text/css">
*{stroke-linecap:butt;stroke-linejoin:round;}
  </style>
 </defs>
 <g id="figure_1">
  <g id="patch_1">
   <path d="M 0 295.553313 
L 439.999063 295.553313 
L 439.999063 0 
L 0 0 
z
" style="fill:#f0f0f0;"/>
  </g>
  <g id="axes_1">
   <g id="patch_2">
    <path d="M 56.959063 122.978114 
L 432.799062 122.978114 
L 432.799062 24.14175 
L 56.959063 24.14175 
z
" style="fill:#ffffff;"/>
   </g>
   <g id="matplotlib.axis_1">
    <g id="xtick_1">
     <g id="line2d_1">
      <path clip-path="url(#p4c8122f14d)" d="M 56.809206 122.978114 
L 56.809206 24.14175 
" style="fill:none;stroke:#cccccc;stroke-linecap:round;"/>
     </g>
     <g id="line2d_2"/>
    </g>
    <g id="xtick_2">
     <g id="line2d_3">
      <path clip-path="url(#p4c8122f14d)" d="M 223.899158 122.978114 
L 223.899158 24.14175 
" style="fill:none;stroke:#cccccc;stroke-linecap:round;"/>
     </g>
     <g id="line2d_4"/>
     <g id="text_1">
      <!--  -->
      <g style="fill:#262626;" transform="translate(223.899158 134.076551)scale(0.1 -0.1)"/>
      <!--  -->
      <g style="fill:#262626;" transform="translate(223.899158 145.274364)scale(0.1 -0.1)"/>
      <!-- Nov -->
      <defs>
       <path d="M 9.8125 72.90625 
L 23.09375 72.90625 
L 55.421875 11.921875 
L 55.421875 72.90625 
L 64.984375 72.90625 
L 64.984375 0 
L 51.703125 0 
L 19.390625 60.984375 
L 19.390625 0 
L 9.8125 0 
z
" id="DejaVuSans-4e"/>
       <path d="M 30.609375 48.390625 
Q 23.390625 48.390625 19.1875 42.75 
Q 14.984375 37.109375 14.984375 27.296875 
Q 14.984375 17.484375 19.15625 11.84375 
Q 23.34375 6.203125 30.609375 6.203125 
Q 37.796875 6.203125 41.984375 11.859375 
Q 46.1875 17.53125 46.1875 27.296875 
Q 46.1875 37.015625 41.984375 42.703125 
Q 37.796875 48.390625 30.609375 48.390625 
z
M 30.609375 56 
Q 42.328125 56 49.015625 48.375 
Q 55.71875 40.765625 55.71875 27.296875 
Q 55.71875 13.875 49.015625 6.21875 
Q 42.328125 -1.421875 30.609375 -1.421875 
Q 18.84375 -1.421875 12.171875 6.21875 
Q 5.515625 13.875 5.515625 27.296875 
Q 5.515625 40.765625 12.171875 48.375 
Q 18.84375 56 30.609375 56 
z
" id="DejaVuSans-6f"/>
       <path d="M 2.984375 54.6875 
L 12.5 54.6875 
L 29.59375 8.796875 
L 46.6875 54.6875 
L 56.203125 54.6875 
L 35.6875 0 
L 23.484375 0 
z
" id="DejaVuSans-76"/>
      </defs>
      <g style="fill:#262626;" transform="translate(214.139783 156.472176)scale(0.1 -0.1)">
       <use xlink:href="#DejaVuSans-4e"/>
       <use x="74.804688" xlink:href="#DejaVuSans-6f"/>
       <use x="135.986328" xlink:href="#DejaVuSans-76"/>
      </g>
      <!-- 2017 -->
      <defs>
       <path d="M 19.1875 8.296875 
L 53.609375 8.296875 
L 53.609375 0 
L 7.328125 0 
L 7.328125 8.296875 
Q 12.9375 14.109375 22.625 23.890625 
Q 32.328125 33.6875 34.8125 36.53125 
Q 39.546875 41.84375 41.421875 45.53125 
Q 43.3125 49.21875 43.3125 52.78125 
Q 43.3125 58.59375 39.234375 62.25 
Q 35.15625 65.921875 28.609375 65.921875 
Q 23.96875 65.921875 18.8125 64.3125 
Q 13.671875 62.703125 7.8125 59.421875 
L 7.8125 69.390625 
Q 13.765625 71.78125 18.9375 73 
Q 24.125 74.21875 28.421875 74.21875 
Q 39.75 74.21875 46.484375 68.546875 
Q 53.21875 62.890625 53.21875 53.421875 
Q 53.21875 48.921875 51.53125 44.890625 
Q 49.859375 40.875 45.40625 35.40625 
Q 44.1875 33.984375 37.640625 27.21875 
Q 31.109375 20.453125 19.1875 8.296875 
z
" id="DejaVuSans-32"/>
       <path d="M 31.78125 66.40625 
Q 24.171875 66.40625 20.328125 58.90625 
Q 16.5 51.421875 16.5 36.375 
Q 16.5 21.390625 20.328125 13.890625 
Q 24.171875 6.390625 31.78125 6.390625 
Q 39.453125 6.390625 43.28125 13.890625 
Q 47.125 21.390625 47.125 36.375 
Q 47.125 51.421875 43.28125 58.90625 
Q 39.453125 66.40625 31.78125 66.40625 
z
M 31.78125 74.21875 
Q 44.046875 74.21875 50.515625 64.515625 
Q 56.984375 54.828125 56.984375 36.375 
Q 56.984375 17.96875 50.515625 8.265625 
Q 44.046875 -1.421875 31.78125 -1.421875 
Q 19.53125 -1.421875 13.0625 8.265625 
Q 6.59375 17.96875 6.59375 36.375 
Q 6.59375 54.828125 13.0625 64.515625 
Q 19.53125 74.21875 31.78125 74.21875 
z
" id="DejaVuSans-30"/>
       <path d="M 12.40625 8.296875 
L 28.515625 8.296875 
L 28.515625 63.921875 
L 10.984375 60.40625 
L 10.984375 69.390625 
L 28.421875 72.90625 
L 38.28125 72.90625 
L 38.28125 8.296875 
L 54.390625 8.296875 
L 54.390625 0 
L 12.40625 0 
z
" id="DejaVuSans-31"/>
       <path d="M 8.203125 72.90625 
L 55.078125 72.90625 
L 55.078125 68.703125 
L 28.609375 0 
L 18.3125 0 
L 43.21875 64.59375 
L 8.203125 64.59375 
z
" id="DejaVuSans-37"/>
      </defs>
      <g style="fill:#262626;" transform="translate(211.174158 167.669989)scale(0.1 -0.1)">
       <use xlink:href="#DejaVuSans-32"/>
       <use x="63.623047" xlink:href="#DejaVuSans-30"/>
       <use x="127.246094" xlink:href="#DejaVuSans-31"/>
       <use x="190.869141" xlink:href="#DejaVuSans-37"/>
      </g>
     </g>
    </g>
    <g id="xtick_3">
     <g id="line2d_5">
      <path clip-path="url(#p4c8122f14d)" d="M 403.726909 122.978114 
L 403.726909 24.14175 
" style="fill:none;stroke:#cccccc;stroke-linecap:round;"/>
     </g>
     <g id="line2d_6"/>
     <g id="text_2">
      <!--  -->
      <g style="fill:#262626;" transform="translate(403.726909 134.076551)scale(0.1 -0.1)"/>
      <!--  -->
      <g style="fill:#262626;" transform="translate(403.726909 145.274364)scale(0.1 -0.1)"/>
      <!-- Dec -->
      <defs>
       <path d="M 19.671875 64.796875 
L 19.671875 8.109375 
L 31.59375 8.109375 
Q 46.6875 8.109375 53.6875 14.9375 
Q 60.6875 21.78125 60.6875 36.53125 
Q 60.6875 51.171875 53.6875 57.984375 
Q 46.6875 64.796875 31.59375 64.796875 
z
M 9.8125 72.90625 
L 30.078125 72.90625 
Q 51.265625 72.90625 61.171875 64.09375 
Q 71.09375 55.28125 71.09375 36.53125 
Q 71.09375 17.671875 61.125 8.828125 
Q 51.171875 0 30.078125 0 
L 9.8125 0 
z
" id="DejaVuSans-44"/>
       <path d="M 56.203125 29.59375 
L 56.203125 25.203125 
L 14.890625 25.203125 
Q 15.484375 15.921875 20.484375 11.0625 
Q 25.484375 6.203125 34.421875 6.203125 
Q 39.59375 6.203125 44.453125 7.46875 
Q 49.3125 8.734375 54.109375 11.28125 
L 54.109375 2.78125 
Q 49.265625 0.734375 44.1875 -0.34375 
Q 39.109375 -1.421875 33.890625 -1.421875 
Q 20.796875 -1.421875 13.15625 6.1875 
Q 5.515625 13.8125 5.515625 26.8125 
Q 5.515625 40.234375 12.765625 48.109375 
Q 20.015625 56 32.328125 56 
Q 43.359375 56 49.78125 48.890625 
Q 56.203125 41.796875 56.203125 29.59375 
z
M 47.21875 32.234375 
Q 47.125 39.59375 43.09375 43.984375 
Q 39.0625 48.390625 32.421875 48.390625 
Q 24.90625 48.390625 20.390625 44.140625 
Q 15.875 39.890625 15.1875 32.171875 
z
" id="DejaVuSans-65"/>
       <path d="M 48.78125 52.59375 
L 48.78125 44.1875 
Q 44.96875 46.296875 41.140625 47.34375 
Q 37.3125 48.390625 33.40625 48.390625 
Q 24.65625 48.390625 19.8125 42.84375 
Q 14.984375 37.3125 14.984375 27.296875 
Q 14.984375 17.28125 19.8125 11.734375 
Q 24.65625 6.203125 33.40625 6.203125 
Q 37.3125 6.203125 41.140625 7.25 
Q 44.96875 8.296875 48.78125 10.40625 
L 48.78125 2.09375 
Q 45.015625 0.34375 40.984375 -0.53125 
Q 36.96875 -1.421875 32.421875 -1.421875 
Q 20.0625 -1.421875 12.78125 6.34375 
Q 5.515625 14.109375 5.515625 27.296875 
Q 5.515625 40.671875 12.859375 48.328125 
Q 20.21875 56 33.015625 56 
Q 37.15625 56 41.109375 55.140625 
Q 45.0625 54.296875 48.78125 52.59375 
z
" id="DejaVuSans-63"/>
      </defs>
      <g style="fill:#262626;" transform="translate(394.051128 156.472176)scale(0.1 -0.1)">
       <use xlink:href="#DejaVuSans-44"/>
       <use x="77.001953" xlink:href="#DejaVuSans-65"/>
       <use x="138.525391" xlink:href="#DejaVuSans-63"/>
      </g>
     </g>
    </g>
    <g id="xtick_4">
     <g id="line2d_7">
      <path clip-path="url(#p4c8122f14d)" d="M 432.699158 122.978114 
L 432.699158 24.14175 
" style="fill:none;stroke:#cccccc;stroke-linecap:round;"/>
     </g>
     <g id="line2d_8"/>
    </g>
    <g id="xtick_5">
     <g id="line2d_9"/>
    </g>
    <g id="xtick_6">
     <g id="line2d_10"/>
    </g>
    <g id="xtick_7">
     <g id="line2d_11"/>
    </g>
    <g id="xtick_8">
     <g id="line2d_12"/>
    </g>
    <g id="xtick_9">
     <g id="line2d_13"/>
     <g id="text_3">
      <!-- 09 -->
      <defs>
       <path d="M 10.984375 1.515625 
L 10.984375 10.5 
Q 14.703125 8.734375 18.5 7.8125 
Q 22.3125 6.890625 25.984375 6.890625 
Q 35.75 6.890625 40.890625 13.453125 
Q 46.046875 20.015625 46.78125 33.40625 
Q 43.953125 29.203125 39.59375 26.953125 
Q 35.25 24.703125 29.984375 24.703125 
Q 19.046875 24.703125 12.671875 31.3125 
Q 6.296875 37.9375 6.296875 49.421875 
Q 6.296875 60.640625 12.9375 67.421875 
Q 19.578125 74.21875 30.609375 74.21875 
Q 43.265625 74.21875 49.921875 64.515625 
Q 56.59375 54.828125 56.59375 36.375 
Q 56.59375 19.140625 48.40625 8.859375 
Q 40.234375 -1.421875 26.421875 -1.421875 
Q 22.703125 -1.421875 18.890625 -0.6875 
Q 15.09375 0.046875 10.984375 1.515625 
z
M 30.609375 32.421875 
Q 37.25 32.421875 41.125 36.953125 
Q 45.015625 41.5 45.015625 49.421875 
Q 45.015625 57.28125 41.125 61.84375 
Q 37.25 66.40625 30.609375 66.40625 
Q 23.96875 66.40625 20.09375 61.84375 
Q 16.21875 57.28125 16.21875 49.421875 
Q 16.21875 41.5 20.09375 36.953125 
Q 23.96875 32.421875 30.609375 32.421875 
z
" id="DejaVuSans-39"/>
      </defs>
      <g style="fill:#262626;" transform="translate(79.668716 133.976551)scale(0.1 -0.1)">
       <use xlink:href="#DejaVuSans-30"/>
       <use x="63.623047" xlink:href="#DejaVuSans-39"/>
      </g>
     </g>
    </g>
    <g id="xtick_10">
     <g id="line2d_14"/>
    </g>
    <g id="xtick_11">
     <g id="line2d_15"/>
    </g>
    <g id="xtick_12">
     <g id="line2d_16"/>
    </g>
    <g id="xtick_13">
     <g id="line2d_17"/>
    </g>
    <g id="xtick_14">
     <g id="line2d_18"/>
    </g>
    <g id="xtick_15">
     <g id="line2d_19"/>
    </g>
    <g id="xtick_16">
     <g id="line2d_20"/>
     <g id="text_4">
      <!-- 16 -->
      <defs>
       <path d="M 33.015625 40.375 
Q 26.375 40.375 22.484375 35.828125 
Q 18.609375 31.296875 18.609375 23.390625 
Q 18.609375 15.53125 22.484375 10.953125 
Q 26.375 6.390625 33.015625 6.390625 
Q 39.65625 6.390625 43.53125 10.953125 
Q 47.40625 15.53125 47.40625 23.390625 
Q 47.40625 31.296875 43.53125 35.828125 
Q 39.65625 40.375 33.015625 40.375 
z
M 52.59375 71.296875 
L 52.59375 62.3125 
Q 48.875 64.0625 45.09375 64.984375 
Q 41.3125 65.921875 37.59375 65.921875 
Q 27.828125 65.921875 22.671875 59.328125 
Q 17.53125 52.734375 16.796875 39.40625 
Q 19.671875 43.65625 24.015625 45.921875 
Q 28.375 48.1875 33.59375 48.1875 
Q 44.578125 48.1875 50.953125 41.515625 
Q 57.328125 34.859375 57.328125 23.390625 
Q 57.328125 12.15625 50.6875 5.359375 
Q 44.046875 -1.421875 33.015625 -1.421875 
Q 20.359375 -1.421875 13.671875 8.265625 
Q 6.984375 17.96875 6.984375 36.375 
Q 6.984375 53.65625 15.1875 63.9375 
Q 23.390625 74.21875 37.203125 74.21875 
Q 40.921875 74.21875 44.703125 73.484375 
Q 48.484375 72.75 52.59375 71.296875 
z
" id="DejaVuSans-36"/>
      </defs>
      <g style="fill:#262626;" transform="translate(121.628524 133.976551)scale(0.1 -0.1)">
       <use xlink:href="#DejaVuSans-31"/>
       <use x="63.623047" xlink:href="#DejaVuSans-36"/>
      </g>
     </g>
    </g>
    <g id="xtick_17">
     <g id="line2d_21"/>
    </g>
    <g id="xtick_18">
     <g id="line2d_22"/>
    </g>
    <g id="xtick_19">
     <g id="line2d_23"/>
    </g>
    <g id="xtick_20">
     <g id="line2d_24"/>
    </g>
    <g id="xtick_21">
     <g id="line2d_25"/>
    </g>
    <g id="xtick_22">
     <g id="line2d_26"/>
    </g>
    <g id="xtick_23">
     <g id="line2d_27"/>
     <g id="text_5">
      <!-- 23 -->
      <defs>
       <path d="M 40.578125 39.3125 
Q 47.65625 37.796875 51.625 33 
Q 55.609375 28.21875 55.609375 21.1875 
Q 55.609375 10.40625 48.1875 4.484375 
Q 40.765625 -1.421875 27.09375 -1.421875 
Q 22.515625 -1.421875 17.65625 -0.515625 
Q 12.796875 0.390625 7.625 2.203125 
L 7.625 11.71875 
Q 11.71875 9.328125 16.59375 8.109375 
Q 21.484375 6.890625 26.8125 6.890625 
Q 36.078125 6.890625 40.9375 10.546875 
Q 45.796875 14.203125 45.796875 21.1875 
Q 45.796875 27.640625 41.28125 31.265625 
Q 36.765625 34.90625 28.71875 34.90625 
L 20.21875 34.90625 
L 20.21875 43.015625 
L 29.109375 43.015625 
Q 36.375 43.015625 40.234375 45.921875 
Q 44.09375 48.828125 44.09375 54.296875 
Q 44.09375 59.90625 40.109375 62.90625 
Q 36.140625 65.921875 28.71875 65.921875 
Q 24.65625 65.921875 20.015625 65.03125 
Q 15.375 64.15625 9.8125 62.3125 
L 9.8125 71.09375 
Q 15.4375 72.65625 20.34375 73.4375 
Q 25.25 74.21875 29.59375 74.21875 
Q 40.828125 74.21875 47.359375 69.109375 
Q 53.90625 64.015625 53.90625 55.328125 
Q 53.90625 49.265625 50.4375 45.09375 
Q 46.96875 40.921875 40.578125 39.3125 
z
" id="DejaVuSans-33"/>
      </defs>
      <g style="fill:#262626;" transform="translate(163.588333 133.976551)scale(0.1 -0.1)">
       <use xlink:href="#DejaVuSans-32"/>
       <use x="63.623047" xlink:href="#DejaVuSans-33"/>
      </g>
     </g>
    </g>
    <g id="xtick_24">
     <g id="line2d_28"/>
    </g>
    <g id="xtick_25">
     <g id="line2d_29"/>
    </g>
    <g id="xtick_26">
     <g id="line2d_30"/>
    </g>
    <g id="xtick_27">
     <g id="line2d_31"/>
    </g>
    <g id="xtick_28">
     <g id="line2d_32"/>
    </g>
    <g id="xtick_29">
     <g id="line2d_33"/>
    </g>
    <g id="xtick_30">
     <g id="line2d_34"/>
     <g id="text_6">
      <!-- 30 -->
      <g style="fill:#262626;" transform="translate(205.548141 133.976551)scale(0.1 -0.1)">
       <use xlink:href="#DejaVuSans-33"/>
       <use x="63.623047" xlink:href="#DejaVuSans-30"/>
      </g>
     </g>
    </g>
    <g id="xtick_31">
     <g id="line2d_35"/>
    </g>
    <g id="xtick_32">
     <g id="line2d_36"/>
    </g>
    <g id="xtick_33">
     <g id="line2d_37"/>
    </g>
    <g id="xtick_34">
     <g id="line2d_38"/>
    </g>
    <g id="xtick_35">
     <g id="line2d_39"/>
    </g>
    <g id="xtick_36">
     <g id="line2d_40"/>
    </g>
    <g id="xtick_37">
     <g id="line2d_41"/>
     <g id="text_7">
      <!-- 06 -->
      <g style="fill:#262626;" transform="translate(247.50795 133.976551)scale(0.1 -0.1)">
       <use xlink:href="#DejaVuSans-30"/>
       <use x="63.623047" xlink:href="#DejaVuSans-36"/>
      </g>
     </g>
    </g>
    <g id="xtick_38">
     <g id="line2d_42"/>
    </g>
    <g id="xtick_39">
     <g id="line2d_43"/>
    </g>
    <g id="xtick_40">
     <g id="line2d_44"/>
    </g>
    <g id="xtick_41">
     <g id="line2d_45"/>
    </g>
    <g id="xtick_42">
     <g id="line2d_46"/>
    </g>
    <g id="xtick_43">
     <g id="line2d_47"/>
    </g>
    <g id="xtick_44">
     <g id="line2d_48"/>
     <g id="text_8">
      <!-- 13 -->
      <g style="fill:#262626;" transform="translate(289.467759 133.976551)scale(0.1 -0.1)">
       <use xlink:href="#DejaVuSans-31"/>
       <use x="63.623047" xlink:href="#DejaVuSans-33"/>
      </g>
     </g>
    </g>
    <g id="xtick_45">
     <g id="line2d_49"/>
    </g>
    <g id="xtick_46">
     <g id="line2d_50"/>
    </g>
    <g id="xtick_47">
     <g id="line2d_51"/>
    </g>
    <g id="xtick_48">
     <g id="line2d_52"/>
    </g>
    <g id="xtick_49">
     <g id="line2d_53"/>
    </g>
    <g id="xtick_50">
     <g id="line2d_54"/>
    </g>
    <g id="xtick_51">
     <g id="line2d_55"/>
     <g id="text_9">
      <!-- 20 -->
      <g style="fill:#262626;" transform="translate(331.427567 133.976551)scale(0.1 -0.1)">
       <use xlink:href="#DejaVuSans-32"/>
       <use x="63.623047" xlink:href="#DejaVuSans-30"/>
      </g>
     </g>
    </g>
    <g id="xtick_52">
     <g id="line2d_56"/>
    </g>
    <g id="xtick_53">
     <g id="line2d_57"/>
    </g>
    <g id="xtick_54">
     <g id="line2d_58"/>
    </g>
    <g id="xtick_55">
     <g id="line2d_59"/>
    </g>
    <g id="xtick_56">
     <g id="line2d_60"/>
    </g>
    <g id="xtick_57">
     <g id="line2d_61"/>
    </g>
    <g id="xtick_58">
     <g id="line2d_62"/>
     <g id="text_10">
      <!-- 27 -->
      <g style="fill:#262626;" transform="translate(373.387376 133.976551)scale(0.1 -0.1)">
       <use xlink:href="#DejaVuSans-32"/>
       <use x="63.623047" xlink:href="#DejaVuSans-37"/>
      </g>
     </g>
    </g>
    <g id="xtick_59">
     <g id="line2d_63"/>
    </g>
    <g id="xtick_60">
     <g id="line2d_64"/>
    </g>
    <g id="xtick_61">
     <g id="line2d_65"/>
    </g>
    <g id="xtick_62">
     <g id="line2d_66"/>
    </g>
    <g id="xtick_63">
     <g id="line2d_67"/>
    </g>
    <g id="xtick_64">
     <g id="line2d_68"/>
    </g>
    <g id="xtick_65">
     <g id="line2d_69"/>
     <g id="text_11">
      <!-- 04 -->
      <defs>
       <path d="M 37.796875 64.3125 
L 12.890625 25.390625 
L 37.796875 25.390625 
z
M 35.203125 72.90625 
L 47.609375 72.90625 
L 47.609375 25.390625 
L 58.015625 25.390625 
L 58.015625 17.1875 
L 47.609375 17.1875 
L 47.609375 0 
L 37.796875 0 
L 37.796875 17.1875 
L 4.890625 17.1875 
L 4.890625 26.703125 
z
" id="DejaVuSans-34"/>
      </defs>
      <g style="fill:#262626;" transform="translate(415.347185 133.976551)scale(0.1 -0.1)">
       <use xlink:href="#DejaVuSans-30"/>
       <use x="63.623047" xlink:href="#DejaVuSans-34"/>
      </g>
     </g>
    </g>
    <g id="xtick_66">
     <g id="line2d_70"/>
    </g>
   </g>
   <g id="matplotlib.axis_2">
    <g id="ytick_1">
     <g id="line2d_71">
      <path clip-path="url(#p4c8122f14d)" d="M 56.959063 122.978114 
L 432.799062 122.978114 
" style="fill:none;stroke:#cccccc;stroke-linecap:round;"/>
     </g>
     <g id="line2d_72"/>
     <g id="text_12">
      <!-- 0 -->
      <g style="fill:#262626;" transform="translate(47.096563 126.777332)scale(0.1 -0.1)">
       <use xlink:href="#DejaVuSans-30"/>
      </g>
     </g>
    </g>
    <g id="ytick_2">
     <g id="line2d_73">
      <path clip-path="url(#p4c8122f14d)" d="M 56.959063 93.988317 
L 432.799062 93.988317 
" style="fill:none;stroke:#cccccc;stroke-linecap:round;"/>
     </g>
     <g id="line2d_74"/>
     <g id="text_13">
      <!-- 1000 -->
      <g style="fill:#262626;" transform="translate(28.009062 97.787536)scale(0.1 -0.1)">
       <use xlink:href="#DejaVuSans-31"/>
       <use x="63.623047" xlink:href="#DejaVuSans-30"/>
       <use x="127.246094" xlink:href="#DejaVuSans-30"/>
       <use x="190.869141" xlink:href="#DejaVuSans-30"/>
      </g>
     </g>
    </g>
    <g id="ytick_3">
     <g id="line2d_75">
      <path clip-path="url(#p4c8122f14d)" d="M 56.959063 64.99852 
L 432.799062 64.99852 
" style="fill:none;stroke:#cccccc;stroke-linecap:round;"/>
     </g>
     <g id="line2d_76"/>
     <g id="text_14">
      <!-- 2000 -->
      <g style="fill:#262626;" transform="translate(28.009062 68.797739)scale(0.1 -0.1)">
       <use xlink:href="#DejaVuSans-32"/>
       <use x="63.623047" xlink:href="#DejaVuSans-30"/>
       <use x="127.246094" xlink:href="#DejaVuSans-30"/>
       <use x="190.869141" xlink:href="#DejaVuSans-30"/>
      </g>
     </g>
    </g>
    <g id="ytick_4">
     <g id="line2d_77">
      <path clip-path="url(#p4c8122f14d)" d="M 56.959063 36.008723 
L 432.799062 36.008723 
" style="fill:none;stroke:#cccccc;stroke-linecap:round;"/>
     </g>
     <g id="line2d_78"/>
     <g id="text_15">
      <!-- 3000 -->
      <g style="fill:#262626;" transform="translate(28.009062 39.807942)scale(0.1 -0.1)">
       <use xlink:href="#DejaVuSans-33"/>
       <use x="63.623047" xlink:href="#DejaVuSans-30"/>
       <use x="127.246094" xlink:href="#DejaVuSans-30"/>
       <use x="190.869141" xlink:href="#DejaVuSans-30"/>
      </g>
     </g>
    </g>
    <g id="text_16">
     <!-- Inbound Tweets -->
     <defs>
      <path d="M 9.8125 72.90625 
L 19.671875 72.90625 
L 19.671875 0 
L 9.8125 0 
z
" id="DejaVuSans-49"/>
      <path d="M 54.890625 33.015625 
L 54.890625 0 
L 45.90625 0 
L 45.90625 32.71875 
Q 45.90625 40.484375 42.875 44.328125 
Q 39.84375 48.1875 33.796875 48.1875 
Q 26.515625 48.1875 22.3125 43.546875 
Q 18.109375 38.921875 18.109375 30.90625 
L 18.109375 0 
L 9.078125 0 
L 9.078125 54.6875 
L 18.109375 54.6875 
L 18.109375 46.1875 
Q 21.34375 51.125 25.703125 53.5625 
Q 30.078125 56 35.796875 56 
Q 45.21875 56 50.046875 50.171875 
Q 54.890625 44.34375 54.890625 33.015625 
z
" id="DejaVuSans-6e"/>
      <path d="M 48.6875 27.296875 
Q 48.6875 37.203125 44.609375 42.84375 
Q 40.53125 48.484375 33.40625 48.484375 
Q 26.265625 48.484375 22.1875 42.84375 
Q 18.109375 37.203125 18.109375 27.296875 
Q 18.109375 17.390625 22.1875 11.75 
Q 26.265625 6.109375 33.40625 6.109375 
Q 40.53125 6.109375 44.609375 11.75 
Q 48.6875 17.390625 48.6875 27.296875 
z
M 18.109375 46.390625 
Q 20.953125 51.265625 25.265625 53.625 
Q 29.59375 56 35.59375 56 
Q 45.5625 56 51.78125 48.09375 
Q 58.015625 40.1875 58.015625 27.296875 
Q 58.015625 14.40625 51.78125 6.484375 
Q 45.5625 -1.421875 35.59375 -1.421875 
Q 29.59375 -1.421875 25.265625 0.953125 
Q 20.953125 3.328125 18.109375 8.203125 
L 18.109375 0 
L 9.078125 0 
L 9.078125 75.984375 
L 18.109375 75.984375 
z
" id="DejaVuSans-62"/>
      <path d="M 8.5 21.578125 
L 8.5 54.6875 
L 17.484375 54.6875 
L 17.484375 21.921875 
Q 17.484375 14.15625 20.5 10.265625 
Q 23.53125 6.390625 29.59375 6.390625 
Q 36.859375 6.390625 41.078125 11.03125 
Q 45.3125 15.671875 45.3125 23.6875 
L 45.3125 54.6875 
L 54.296875 54.6875 
L 54.296875 0 
L 45.3125 0 
L 45.3125 8.40625 
Q 42.046875 3.421875 37.71875 1 
Q 33.40625 -1.421875 27.6875 -1.421875 
Q 18.265625 -1.421875 13.375 4.4375 
Q 8.5 10.296875 8.5 21.578125 
z
M 31.109375 56 
z
" id="DejaVuSans-75"/>
      <path d="M 45.40625 46.390625 
L 45.40625 75.984375 
L 54.390625 75.984375 
L 54.390625 0 
L 45.40625 0 
L 45.40625 8.203125 
Q 42.578125 3.328125 38.25 0.953125 
Q 33.9375 -1.421875 27.875 -1.421875 
Q 17.96875 -1.421875 11.734375 6.484375 
Q 5.515625 14.40625 5.515625 27.296875 
Q 5.515625 40.1875 11.734375 48.09375 
Q 17.96875 56 27.875 56 
Q 33.9375 56 38.25 53.625 
Q 42.578125 51.265625 45.40625 46.390625 
z
M 14.796875 27.296875 
Q 14.796875 17.390625 18.875 11.75 
Q 22.953125 6.109375 30.078125 6.109375 
Q 37.203125 6.109375 41.296875 11.75 
Q 45.40625 17.390625 45.40625 27.296875 
Q 45.40625 37.203125 41.296875 42.84375 
Q 37.203125 48.484375 30.078125 48.484375 
Q 22.953125 48.484375 18.875 42.84375 
Q 14.796875 37.203125 14.796875 27.296875 
z
" id="DejaVuSans-64"/>
      <path id="DejaVuSans-20"/>
      <path d="M -0.296875 72.90625 
L 61.375 72.90625 
L 61.375 64.59375 
L 35.5 64.59375 
L 35.5 0 
L 25.59375 0 
L 25.59375 64.59375 
L -0.296875 64.59375 
z
" id="DejaVuSans-54"/>
      <path d="M 4.203125 54.6875 
L 13.1875 54.6875 
L 24.421875 12.015625 
L 35.59375 54.6875 
L 46.1875 54.6875 
L 57.421875 12.015625 
L 68.609375 54.6875 
L 77.59375 54.6875 
L 63.28125 0 
L 52.6875 0 
L 40.921875 44.828125 
L 29.109375 0 
L 18.5 0 
z
" id="DejaVuSans-77"/>
      <path d="M 18.3125 70.21875 
L 18.3125 54.6875 
L 36.8125 54.6875 
L 36.8125 47.703125 
L 18.3125 47.703125 
L 18.3125 18.015625 
Q 18.3125 11.328125 20.140625 9.421875 
Q 21.96875 7.515625 27.59375 7.515625 
L 36.8125 7.515625 
L 36.8125 0 
L 27.59375 0 
Q 17.1875 0 13.234375 3.875 
Q 9.28125 7.765625 9.28125 18.015625 
L 9.28125 47.703125 
L 2.6875 47.703125 
L 2.6875 54.6875 
L 9.28125 54.6875 
L 9.28125 70.21875 
z
" id="DejaVuSans-74"/>
      <path d="M 44.28125 53.078125 
L 44.28125 44.578125 
Q 40.484375 46.53125 36.375 47.5 
Q 32.28125 48.484375 27.875 48.484375 
Q 21.1875 48.484375 17.84375 46.4375 
Q 14.5 44.390625 14.5 40.28125 
Q 14.5 37.15625 16.890625 35.375 
Q 19.28125 33.59375 26.515625 31.984375 
L 29.59375 31.296875 
Q 39.15625 29.25 43.1875 25.515625 
Q 47.21875 21.78125 47.21875 15.09375 
Q 47.21875 7.46875 41.1875 3.015625 
Q 35.15625 -1.421875 24.609375 -1.421875 
Q 20.21875 -1.421875 15.453125 -0.5625 
Q 10.6875 0.296875 5.421875 2 
L 5.421875 11.28125 
Q 10.40625 8.6875 15.234375 7.390625 
Q 20.0625 6.109375 24.8125 6.109375 
Q 31.15625 6.109375 34.5625 8.28125 
Q 37.984375 10.453125 37.984375 14.40625 
Q 37.984375 18.0625 35.515625 20.015625 
Q 33.0625 21.96875 24.703125 23.78125 
L 21.578125 24.515625 
Q 13.234375 26.265625 9.515625 29.90625 
Q 5.8125 33.546875 5.8125 39.890625 
Q 5.8125 47.609375 11.28125 51.796875 
Q 16.75 56 26.8125 56 
Q 31.78125 56 36.171875 55.265625 
Q 40.578125 54.546875 44.28125 53.078125 
z
" id="DejaVuSans-73"/>
     </defs>
     <g style="fill:#262626;" transform="translate(21.513437 121.351807)rotate(-90)scale(0.12 -0.12)">
      <use xlink:href="#DejaVuSans-49"/>
      <use x="29.492188" xlink:href="#DejaVuSans-6e"/>
      <use x="92.871094" xlink:href="#DejaVuSans-62"/>
      <use x="156.347656" xlink:href="#DejaVuSans-6f"/>
      <use x="217.529297" xlink:href="#DejaVuSans-75"/>
      <use x="280.908203" xlink:href="#DejaVuSans-6e"/>
      <use x="344.287109" xlink:href="#DejaVuSans-64"/>
      <use x="407.763672" xlink:href="#DejaVuSans-20"/>
      <use x="439.550781" xlink:href="#DejaVuSans-54"/>
      <use x="500.384766" xlink:href="#DejaVuSans-77"/>
      <use x="582.171875" xlink:href="#DejaVuSans-65"/>
      <use x="643.695312" xlink:href="#DejaVuSans-65"/>
      <use x="705.21875" xlink:href="#DejaVuSans-74"/>
      <use x="744.427734" xlink:href="#DejaVuSans-73"/>
     </g>
    </g>
   </g>
   <g id="PolyCollection_1">
    <defs>
     <path d="M 74.042699 -207.623863 
L 74.042699 -172.575199 
L 80.036957 -172.575199 
L 86.031216 -172.575199 
L 92.025474 -172.575199 
L 98.019732 -172.575199 
L 104.013991 -172.575199 
L 110.008249 -172.575199 
L 116.002507 -172.575199 
L 121.996766 -172.575199 
L 127.991024 -172.575199 
L 133.985283 -172.575199 
L 139.979541 -172.575199 
L 145.973799 -172.575199 
L 151.968058 -172.575199 
L 157.962316 -172.575199 
L 163.956574 -172.575199 
L 169.950833 -172.575199 
L 175.945091 -172.575199 
L 181.93935 -172.575199 
L 187.933608 -172.575199 
L 193.927866 -172.575199 
L 199.922125 -172.575199 
L 205.916383 -172.575199 
L 211.910641 -172.575199 
L 217.9049 -172.575199 
L 223.899158 -172.575199 
L 229.893417 -172.575199 
L 235.887675 -172.575199 
L 241.881933 -172.575199 
L 247.876192 -172.575199 
L 253.87045 -172.575199 
L 259.864708 -172.575199 
L 265.858967 -172.575199 
L 271.853225 -172.575199 
L 277.847484 -172.575199 
L 283.841742 -172.575199 
L 289.836 -172.575199 
L 295.830259 -172.575199 
L 301.824517 -172.575199 
L 307.818775 -172.575199 
L 313.813034 -172.575199 
L 319.807292 -172.575199 
L 325.801551 -172.575199 
L 331.795809 -172.575199 
L 337.790067 -172.575199 
L 343.784326 -172.575199 
L 349.778584 -172.575199 
L 355.772842 -172.575199 
L 361.767101 -172.575199 
L 367.761359 -172.575199 
L 373.755618 -172.575199 
L 379.749876 -172.575199 
L 385.744134 -172.575199 
L 391.738393 -172.575199 
L 397.732651 -172.575199 
L 403.726909 -172.575199 
L 409.721168 -172.575199 
L 415.715426 -172.575199 
L 415.715426 -198.347128 
L 415.715426 -198.347128 
L 409.721168 -212.436169 
L 403.726909 -199.622679 
L 397.732651 -200.347424 
L 391.738393 -201.825904 
L 385.744134 -197.535414 
L 379.749876 -196.868649 
L 373.755618 -192.114322 
L 367.761359 -193.215934 
L 361.767101 -193.737751 
L 355.772842 -194.781383 
L 349.778584 -201.043179 
L 343.784326 -202.173781 
L 337.790067 -200.521363 
L 331.795809 -194.578455 
L 325.801551 -173.966709 
L 319.807292 -204.261047 
L 313.813034 -210.9287 
L 307.818775 -216.523731 
L 301.824517 -215.451108 
L 295.830259 -212.610108 
L 289.836 -213.79869 
L 283.841742 -211.392537 
L 277.847484 -191.157659 
L 271.853225 -196.897638 
L 265.858967 -252.587038 
L 259.864708 -266.705069 
L 253.87045 -263.574171 
L 247.876192 -252.731987 
L 241.881933 -245.658477 
L 235.887675 -249.572099 
L 229.893417 -229.047323 
L 223.899158 -214.001618 
L 217.9049 -202.840547 
L 211.910641 -196.781679 
L 205.916383 -192.926036 
L 199.922125 -193.708761 
L 193.927866 -208.406588 
L 187.933608 -205.594577 
L 181.93935 -201.333077 
L 175.945091 -207.073057 
L 169.950833 -205.681547 
L 163.956574 -196.955618 
L 157.962316 -197.535414 
L 151.968058 -203.101455 
L 145.973799 -205.652557 
L 139.979541 -206.377302 
L 133.985283 -202.492669 
L 127.991024 -201.130149 
L 121.996766 -196.66572 
L 116.002507 -195.969965 
L 110.008249 -201.362067 
L 104.013991 -202.927516 
L 98.019732 -204.203067 
L 92.025474 -208.638506 
L 86.031216 -208.377598 
L 80.036957 -203.304383 
L 74.042699 -207.623863 
z
" id="m3070c6d81c" style="stroke:#008fd5;stroke-width:0.5;"/>
    </defs>
    <g clip-path="url(#p4c8122f14d)">
     <use style="fill:#008fd5;stroke:#008fd5;stroke-width:0.5;" x="0" xlink:href="#m3070c6d81c" y="295.553313"/>
    </g>
   </g>
   <g id="line2d_79">
    <path clip-path="url(#p4c8122f14d)" d="M 74.042699 87.929449 
L 80.036957 92.248929 
L 86.031216 87.175715 
L 92.025474 86.914806 
L 98.019732 91.350245 
L 104.013991 92.625796 
L 110.008249 94.191245 
L 116.002507 99.583348 
L 121.996766 98.887593 
L 127.991024 94.423164 
L 133.985283 93.060643 
L 139.979541 89.176011 
L 145.973799 89.900756 
L 151.968058 92.451858 
L 157.962316 98.017899 
L 163.956574 98.597695 
L 169.950833 89.871766 
L 175.945091 88.480255 
L 181.93935 94.220235 
L 187.933608 89.958735 
L 193.927866 87.146725 
L 199.922125 101.844552 
L 205.916383 102.627276 
L 211.910641 98.771633 
L 217.9049 92.712766 
L 223.899158 81.551694 
L 229.893417 66.50599 
L 235.887675 45.981213 
L 241.881933 49.894836 
L 247.876192 42.821326 
L 253.87045 31.979142 
L 259.864708 28.848244 
L 265.858967 42.966275 
L 271.853225 98.655674 
L 277.847484 104.395654 
L 283.841742 84.160776 
L 289.836 81.754623 
L 295.830259 82.943204 
L 301.824517 80.102204 
L 307.818775 79.029582 
L 313.813034 84.624613 
L 319.807292 91.292266 
L 325.801551 121.586603 
L 331.795809 100.974858 
L 337.790067 95.03195 
L 343.784326 93.379531 
L 349.778584 94.510133 
L 355.772842 100.771929 
L 361.767101 101.815562 
L 367.761359 102.337378 
L 373.755618 103.438991 
L 379.749876 98.684664 
L 385.744134 98.017899 
L 391.738393 93.727409 
L 397.732651 95.205888 
L 403.726909 95.930633 
L 409.721168 83.117143 
L 415.715426 97.206184 
" style="fill:none;stroke:#008fd5;stroke-linecap:round;stroke-width:4;"/>
   </g>
   <g id="patch_3">
    <path d="M 56.959063 122.978114 
L 56.959063 24.14175 
" style="fill:none;stroke:#cccccc;stroke-linecap:square;stroke-linejoin:miter;"/>
   </g>
   <g id="patch_4">
    <path d="M 432.799062 122.978114 
L 432.799062 24.14175 
" style="fill:none;stroke:#cccccc;stroke-linecap:square;stroke-linejoin:miter;"/>
   </g>
   <g id="patch_5">
    <path d="M 56.959063 122.978114 
L 432.799063 122.978114 
" style="fill:none;stroke:#cccccc;stroke-linecap:square;stroke-linejoin:miter;"/>
   </g>
   <g id="patch_6">
    <path d="M 56.959063 24.14175 
L 432.799063 24.14175 
" style="fill:none;stroke:#cccccc;stroke-linecap:square;stroke-linejoin:miter;"/>
   </g>
   <g id="text_17">
    <!-- @AppleSupport Volume &amp; Sentiment -->
    <defs>
     <path d="M 37.203125 26.21875 
Q 37.203125 19.234375 40.671875 15.25 
Q 44.140625 11.28125 50.203125 11.28125 
Q 56.203125 11.28125 59.640625 15.28125 
Q 63.09375 19.28125 63.09375 26.21875 
Q 63.09375 33.0625 59.578125 37.078125 
Q 56.0625 41.109375 50.09375 41.109375 
Q 44.1875 41.109375 40.6875 37.109375 
Q 37.203125 33.109375 37.203125 26.21875 
z
M 63.8125 11.625 
Q 60.890625 7.859375 57.109375 6.078125 
Q 53.328125 4.296875 48.296875 4.296875 
Q 39.890625 4.296875 34.640625 10.375 
Q 29.390625 16.453125 29.390625 26.21875 
Q 29.390625 35.984375 34.65625 42.078125 
Q 39.9375 48.1875 48.296875 48.1875 
Q 53.328125 48.1875 57.125 46.359375 
Q 60.9375 44.53125 63.8125 40.828125 
L 63.8125 47.21875 
L 70.796875 47.21875 
L 70.796875 11.28125 
Q 77.9375 12.359375 81.953125 17.796875 
Q 85.984375 23.25 85.984375 31.890625 
Q 85.984375 37.109375 84.4375 41.703125 
Q 82.90625 46.296875 79.78125 50.203125 
Q 74.703125 56.59375 67.40625 59.984375 
Q 60.109375 63.375 51.515625 63.375 
Q 45.515625 63.375 39.984375 61.78125 
Q 34.46875 60.203125 29.78125 57.078125 
Q 22.125 52.09375 17.796875 44.015625 
Q 13.484375 35.9375 13.484375 26.515625 
Q 13.484375 18.75 16.28125 11.953125 
Q 19.09375 5.171875 24.421875 0 
Q 29.546875 -5.078125 36.28125 -7.734375 
Q 43.015625 -10.40625 50.6875 -10.40625 
Q 56.984375 -10.40625 63.0625 -8.28125 
Q 69.140625 -6.15625 74.21875 -2.203125 
L 78.609375 -7.625 
Q 72.515625 -12.359375 65.3125 -14.875 
Q 58.109375 -17.390625 50.6875 -17.390625 
Q 41.65625 -17.390625 33.640625 -14.1875 
Q 25.640625 -10.984375 19.390625 -4.890625 
Q 13.140625 1.21875 9.859375 9.25 
Q 6.59375 17.28125 6.59375 26.515625 
Q 6.59375 35.40625 9.90625 43.453125 
Q 13.234375 51.515625 19.390625 57.625 
Q 25.6875 63.8125 33.9375 67.109375 
Q 42.1875 70.40625 51.421875 70.40625 
Q 61.765625 70.40625 70.625 66.15625 
Q 79.5 61.921875 85.5 54.109375 
Q 89.15625 49.3125 91.078125 43.703125 
Q 93.015625 38.09375 93.015625 32.078125 
Q 93.015625 19.234375 85.25 11.8125 
Q 77.484375 4.390625 63.8125 4.109375 
z
" id="DejaVuSans-40"/>
     <path d="M 34.1875 63.1875 
L 20.796875 26.90625 
L 47.609375 26.90625 
z
M 28.609375 72.90625 
L 39.796875 72.90625 
L 67.578125 0 
L 57.328125 0 
L 50.6875 18.703125 
L 17.828125 18.703125 
L 11.1875 0 
L 0.78125 0 
z
" id="DejaVuSans-41"/>
     <path d="M 18.109375 8.203125 
L 18.109375 -20.796875 
L 9.078125 -20.796875 
L 9.078125 54.6875 
L 18.109375 54.6875 
L 18.109375 46.390625 
Q 20.953125 51.265625 25.265625 53.625 
Q 29.59375 56 35.59375 56 
Q 45.5625 56 51.78125 48.09375 
Q 58.015625 40.1875 58.015625 27.296875 
Q 58.015625 14.40625 51.78125 6.484375 
Q 45.5625 -1.421875 35.59375 -1.421875 
Q 29.59375 -1.421875 25.265625 0.953125 
Q 20.953125 3.328125 18.109375 8.203125 
z
M 48.6875 27.296875 
Q 48.6875 37.203125 44.609375 42.84375 
Q 40.53125 48.484375 33.40625 48.484375 
Q 26.265625 48.484375 22.1875 42.84375 
Q 18.109375 37.203125 18.109375 27.296875 
Q 18.109375 17.390625 22.1875 11.75 
Q 26.265625 6.109375 33.40625 6.109375 
Q 40.53125 6.109375 44.609375 11.75 
Q 48.6875 17.390625 48.6875 27.296875 
z
" id="DejaVuSans-70"/>
     <path d="M 9.421875 75.984375 
L 18.40625 75.984375 
L 18.40625 0 
L 9.421875 0 
z
" id="DejaVuSans-6c"/>
     <path d="M 53.515625 70.515625 
L 53.515625 60.890625 
Q 47.90625 63.578125 42.921875 64.890625 
Q 37.9375 66.21875 33.296875 66.21875 
Q 25.25 66.21875 20.875 63.09375 
Q 16.5 59.96875 16.5 54.203125 
Q 16.5 49.359375 19.40625 46.890625 
Q 22.3125 44.4375 30.421875 42.921875 
L 36.375 41.703125 
Q 47.40625 39.59375 52.65625 34.296875 
Q 57.90625 29 57.90625 20.125 
Q 57.90625 9.515625 50.796875 4.046875 
Q 43.703125 -1.421875 29.984375 -1.421875 
Q 24.8125 -1.421875 18.96875 -0.25 
Q 13.140625 0.921875 6.890625 3.21875 
L 6.890625 13.375 
Q 12.890625 10.015625 18.65625 8.296875 
Q 24.421875 6.59375 29.984375 6.59375 
Q 38.421875 6.59375 43.015625 9.90625 
Q 47.609375 13.234375 47.609375 19.390625 
Q 47.609375 24.75 44.3125 27.78125 
Q 41.015625 30.8125 33.5 32.328125 
L 27.484375 33.5 
Q 16.453125 35.6875 11.515625 40.375 
Q 6.59375 45.0625 6.59375 53.421875 
Q 6.59375 63.09375 13.40625 68.65625 
Q 20.21875 74.21875 32.171875 74.21875 
Q 37.3125 74.21875 42.625 73.28125 
Q 47.953125 72.359375 53.515625 70.515625 
z
" id="DejaVuSans-53"/>
     <path d="M 41.109375 46.296875 
Q 39.59375 47.171875 37.8125 47.578125 
Q 36.03125 48 33.890625 48 
Q 26.265625 48 22.1875 43.046875 
Q 18.109375 38.09375 18.109375 28.8125 
L 18.109375 0 
L 9.078125 0 
L 9.078125 54.6875 
L 18.109375 54.6875 
L 18.109375 46.1875 
Q 20.953125 51.171875 25.484375 53.578125 
Q 30.03125 56 36.53125 56 
Q 37.453125 56 38.578125 55.875 
Q 39.703125 55.765625 41.0625 55.515625 
z
" id="DejaVuSans-72"/>
     <path d="M 28.609375 0 
L 0.78125 72.90625 
L 11.078125 72.90625 
L 34.1875 11.53125 
L 57.328125 72.90625 
L 67.578125 72.90625 
L 39.796875 0 
z
" id="DejaVuSans-56"/>
     <path d="M 52 44.1875 
Q 55.375 50.25 60.0625 53.125 
Q 64.75 56 71.09375 56 
Q 79.640625 56 84.28125 50.015625 
Q 88.921875 44.046875 88.921875 33.015625 
L 88.921875 0 
L 79.890625 0 
L 79.890625 32.71875 
Q 79.890625 40.578125 77.09375 44.375 
Q 74.3125 48.1875 68.609375 48.1875 
Q 61.625 48.1875 57.5625 43.546875 
Q 53.515625 38.921875 53.515625 30.90625 
L 53.515625 0 
L 44.484375 0 
L 44.484375 32.71875 
Q 44.484375 40.625 41.703125 44.40625 
Q 38.921875 48.1875 33.109375 48.1875 
Q 26.21875 48.1875 22.15625 43.53125 
Q 18.109375 38.875 18.109375 30.90625 
L 18.109375 0 
L 9.078125 0 
L 9.078125 54.6875 
L 18.109375 54.6875 
L 18.109375 46.1875 
Q 21.1875 51.21875 25.484375 53.609375 
Q 29.78125 56 35.6875 56 
Q 41.65625 56 45.828125 52.96875 
Q 50 49.953125 52 44.1875 
z
" id="DejaVuSans-6d"/>
     <path d="M 24.3125 39.203125 
Q 19.875 35.25 17.796875 31.3125 
Q 15.71875 27.390625 15.71875 23.09375 
Q 15.71875 15.96875 20.890625 11.234375 
Q 26.078125 6.5 33.890625 6.5 
Q 38.53125 6.5 42.578125 8.03125 
Q 46.625 9.578125 50.203125 12.703125 
z
M 31.203125 44.671875 
L 56 19.28125 
Q 58.890625 23.640625 60.5 28.59375 
Q 62.109375 33.546875 62.40625 39.109375 
L 71.484375 39.109375 
Q 70.90625 32.671875 68.359375 26.359375 
Q 65.828125 20.0625 61.28125 13.921875 
L 74.90625 0 
L 62.59375 0 
L 55.609375 7.171875 
Q 50.53125 2.828125 44.96875 0.703125 
Q 39.40625 -1.421875 33.015625 -1.421875 
Q 21.234375 -1.421875 13.765625 5.296875 
Q 6.296875 12.015625 6.296875 22.515625 
Q 6.296875 28.765625 9.5625 34.25 
Q 12.84375 39.75 19.390625 44.578125 
Q 17.046875 47.65625 15.8125 50.703125 
Q 14.59375 53.765625 14.59375 56.6875 
Q 14.59375 64.59375 20.015625 69.40625 
Q 25.4375 74.21875 34.421875 74.21875 
Q 38.484375 74.21875 42.5 73.34375 
Q 46.53125 72.46875 50.6875 70.703125 
L 50.6875 61.8125 
Q 46.4375 64.109375 42.578125 65.296875 
Q 38.71875 66.5 35.40625 66.5 
Q 30.28125 66.5 27.078125 63.78125 
Q 23.875 61.078125 23.875 56.78125 
Q 23.875 54.296875 25.3125 51.78125 
Q 26.765625 49.265625 31.203125 44.671875 
z
" id="DejaVuSans-26"/>
     <path d="M 9.421875 54.6875 
L 18.40625 54.6875 
L 18.40625 0 
L 9.421875 0 
z
M 9.421875 75.984375 
L 18.40625 75.984375 
L 18.40625 64.59375 
L 9.421875 64.59375 
z
" id="DejaVuSans-69"/>
    </defs>
    <g style="fill:#262626;" transform="translate(111.692562 18.14175)scale(0.144 -0.144)">
     <use xlink:href="#DejaVuSans-40"/>
     <use x="100" xlink:href="#DejaVuSans-41"/>
     <use x="168.408203" xlink:href="#DejaVuSans-70"/>
     <use x="231.884766" xlink:href="#DejaVuSans-70"/>
     <use x="295.361328" xlink:href="#DejaVuSans-6c"/>
     <use x="323.144531" xlink:href="#DejaVuSans-65"/>
     <use x="384.667969" xlink:href="#DejaVuSans-53"/>
     <use x="448.144531" xlink:href="#DejaVuSans-75"/>
     <use x="511.523438" xlink:href="#DejaVuSans-70"/>
     <use x="575" xlink:href="#DejaVuSans-70"/>
     <use x="638.476562" xlink:href="#DejaVuSans-6f"/>
     <use x="699.658203" xlink:href="#DejaVuSans-72"/>
     <use x="740.771484" xlink:href="#DejaVuSans-74"/>
     <use x="779.980469" xlink:href="#DejaVuSans-20"/>
     <use x="811.767578" xlink:href="#DejaVuSans-56"/>
     <use x="880.066406" xlink:href="#DejaVuSans-6f"/>
     <use x="941.248047" xlink:href="#DejaVuSans-6c"/>
     <use x="969.03125" xlink:href="#DejaVuSans-75"/>
     <use x="1032.410156" xlink:href="#DejaVuSans-6d"/>
     <use x="1129.822266" xlink:href="#DejaVuSans-65"/>
     <use x="1191.345703" xlink:href="#DejaVuSans-20"/>
     <use x="1223.132812" xlink:href="#DejaVuSans-26"/>
     <use x="1301.111328" xlink:href="#DejaVuSans-20"/>
     <use x="1332.898438" xlink:href="#DejaVuSans-53"/>
     <use x="1396.375" xlink:href="#DejaVuSans-65"/>
     <use x="1457.898438" xlink:href="#DejaVuSans-6e"/>
     <use x="1521.277344" xlink:href="#DejaVuSans-74"/>
     <use x="1560.486328" xlink:href="#DejaVuSans-69"/>
     <use x="1588.269531" xlink:href="#DejaVuSans-6d"/>
     <use x="1685.681641" xlink:href="#DejaVuSans-65"/>
     <use x="1747.205078" xlink:href="#DejaVuSans-6e"/>
     <use x="1810.583984" xlink:href="#DejaVuSans-74"/>
    </g>
   </g>
  </g>
  <g id="axes_2">
   <g id="patch_7">
    <path d="M 56.959063 241.58175 
L 432.799062 241.58175 
L 432.799062 142.745386 
L 56.959063 142.745386 
z
" style="fill:#ffffff;"/>
   </g>
   <g id="matplotlib.axis_3">
    <g id="xtick_67">
     <g id="line2d_80">
      <path clip-path="url(#p91fde4cafc)" d="M 56.809206 241.58175 
L 56.809206 142.745386 
" style="fill:none;stroke:#cccccc;stroke-linecap:round;"/>
     </g>
     <g id="line2d_81"/>
    </g>
    <g id="xtick_68">
     <g id="line2d_82">
      <path clip-path="url(#p91fde4cafc)" d="M 223.899158 241.58175 
L 223.899158 142.745386 
" style="fill:none;stroke:#cccccc;stroke-linecap:round;"/>
     </g>
     <g id="line2d_83"/>
     <g id="text_18">
      <!--  -->
      <g style="fill:#262626;" transform="translate(223.899158 252.680187)scale(0.1 -0.1)"/>
      <!--  -->
      <g style="fill:#262626;" transform="translate(223.899158 263.878)scale(0.1 -0.1)"/>
      <!-- Nov -->
      <g style="fill:#262626;" transform="translate(214.139783 275.075812)scale(0.1 -0.1)">
       <use xlink:href="#DejaVuSans-4e"/>
       <use x="74.804688" xlink:href="#DejaVuSans-6f"/>
       <use x="135.986328" xlink:href="#DejaVuSans-76"/>
      </g>
      <!-- 2017 -->
      <g style="fill:#262626;" transform="translate(211.174158 286.273625)scale(0.1 -0.1)">
       <use xlink:href="#DejaVuSans-32"/>
       <use x="63.623047" xlink:href="#DejaVuSans-30"/>
       <use x="127.246094" xlink:href="#DejaVuSans-31"/>
       <use x="190.869141" xlink:href="#DejaVuSans-37"/>
      </g>
     </g>
    </g>
    <g id="xtick_69">
     <g id="line2d_84">
      <path clip-path="url(#p91fde4cafc)" d="M 403.726909 241.58175 
L 403.726909 142.745386 
" style="fill:none;stroke:#cccccc;stroke-linecap:round;"/>
     </g>
     <g id="line2d_85"/>
     <g id="text_19">
      <!--  -->
      <g style="fill:#262626;" transform="translate(403.726909 252.680187)scale(0.1 -0.1)"/>
      <!--  -->
      <g style="fill:#262626;" transform="translate(403.726909 263.878)scale(0.1 -0.1)"/>
      <!-- Dec -->
      <g style="fill:#262626;" transform="translate(394.051128 275.075812)scale(0.1 -0.1)">
       <use xlink:href="#DejaVuSans-44"/>
       <use x="77.001953" xlink:href="#DejaVuSans-65"/>
       <use x="138.525391" xlink:href="#DejaVuSans-63"/>
      </g>
     </g>
    </g>
    <g id="xtick_70">
     <g id="line2d_86">
      <path clip-path="url(#p91fde4cafc)" d="M 432.699158 241.58175 
L 432.699158 142.745386 
" style="fill:none;stroke:#cccccc;stroke-linecap:round;"/>
     </g>
     <g id="line2d_87"/>
    </g>
    <g id="xtick_71">
     <g id="line2d_88"/>
    </g>
    <g id="xtick_72">
     <g id="line2d_89"/>
    </g>
    <g id="xtick_73">
     <g id="line2d_90"/>
    </g>
    <g id="xtick_74">
     <g id="line2d_91"/>
    </g>
    <g id="xtick_75">
     <g id="line2d_92"/>
     <g id="text_20">
      <!-- 09 -->
      <g style="fill:#262626;" transform="translate(79.668716 252.580187)scale(0.1 -0.1)">
       <use xlink:href="#DejaVuSans-30"/>
       <use x="63.623047" xlink:href="#DejaVuSans-39"/>
      </g>
     </g>
    </g>
    <g id="xtick_76">
     <g id="line2d_93"/>
    </g>
    <g id="xtick_77">
     <g id="line2d_94"/>
    </g>
    <g id="xtick_78">
     <g id="line2d_95"/>
    </g>
    <g id="xtick_79">
     <g id="line2d_96"/>
    </g>
    <g id="xtick_80">
     <g id="line2d_97"/>
    </g>
    <g id="xtick_81">
     <g id="line2d_98"/>
    </g>
    <g id="xtick_82">
     <g id="line2d_99"/>
     <g id="text_21">
      <!-- 16 -->
      <g style="fill:#262626;" transform="translate(121.628524 252.580187)scale(0.1 -0.1)">
       <use xlink:href="#DejaVuSans-31"/>
       <use x="63.623047" xlink:href="#DejaVuSans-36"/>
      </g>
     </g>
    </g>
    <g id="xtick_83">
     <g id="line2d_100"/>
    </g>
    <g id="xtick_84">
     <g id="line2d_101"/>
    </g>
    <g id="xtick_85">
     <g id="line2d_102"/>
    </g>
    <g id="xtick_86">
     <g id="line2d_103"/>
    </g>
    <g id="xtick_87">
     <g id="line2d_104"/>
    </g>
    <g id="xtick_88">
     <g id="line2d_105"/>
    </g>
    <g id="xtick_89">
     <g id="line2d_106"/>
     <g id="text_22">
      <!-- 23 -->
      <g style="fill:#262626;" transform="translate(163.588333 252.580187)scale(0.1 -0.1)">
       <use xlink:href="#DejaVuSans-32"/>
       <use x="63.623047" xlink:href="#DejaVuSans-33"/>
      </g>
     </g>
    </g>
    <g id="xtick_90">
     <g id="line2d_107"/>
    </g>
    <g id="xtick_91">
     <g id="line2d_108"/>
    </g>
    <g id="xtick_92">
     <g id="line2d_109"/>
    </g>
    <g id="xtick_93">
     <g id="line2d_110"/>
    </g>
    <g id="xtick_94">
     <g id="line2d_111"/>
    </g>
    <g id="xtick_95">
     <g id="line2d_112"/>
    </g>
    <g id="xtick_96">
     <g id="line2d_113"/>
     <g id="text_23">
      <!-- 30 -->
      <g style="fill:#262626;" transform="translate(205.548141 252.580187)scale(0.1 -0.1)">
       <use xlink:href="#DejaVuSans-33"/>
       <use x="63.623047" xlink:href="#DejaVuSans-30"/>
      </g>
     </g>
    </g>
    <g id="xtick_97">
     <g id="line2d_114"/>
    </g>
    <g id="xtick_98">
     <g id="line2d_115"/>
    </g>
    <g id="xtick_99">
     <g id="line2d_116"/>
    </g>
    <g id="xtick_100">
     <g id="line2d_117"/>
    </g>
    <g id="xtick_101">
     <g id="line2d_118"/>
    </g>
    <g id="xtick_102">
     <g id="line2d_119"/>
    </g>
    <g id="xtick_103">
     <g id="line2d_120"/>
     <g id="text_24">
      <!-- 06 -->
      <g style="fill:#262626;" transform="translate(247.50795 252.580187)scale(0.1 -0.1)">
       <use xlink:href="#DejaVuSans-30"/>
       <use x="63.623047" xlink:href="#DejaVuSans-36"/>
      </g>
     </g>
    </g>
    <g id="xtick_104">
     <g id="line2d_121"/>
    </g>
    <g id="xtick_105">
     <g id="line2d_122"/>
    </g>
    <g id="xtick_106">
     <g id="line2d_123"/>
    </g>
    <g id="xtick_107">
     <g id="line2d_124"/>
    </g>
    <g id="xtick_108">
     <g id="line2d_125"/>
    </g>
    <g id="xtick_109">
     <g id="line2d_126"/>
    </g>
    <g id="xtick_110">
     <g id="line2d_127"/>
     <g id="text_25">
      <!-- 13 -->
      <g style="fill:#262626;" transform="translate(289.467759 252.580187)scale(0.1 -0.1)">
       <use xlink:href="#DejaVuSans-31"/>
       <use x="63.623047" xlink:href="#DejaVuSans-33"/>
      </g>
     </g>
    </g>
    <g id="xtick_111">
     <g id="line2d_128"/>
    </g>
    <g id="xtick_112">
     <g id="line2d_129"/>
    </g>
    <g id="xtick_113">
     <g id="line2d_130"/>
    </g>
    <g id="xtick_114">
     <g id="line2d_131"/>
    </g>
    <g id="xtick_115">
     <g id="line2d_132"/>
    </g>
    <g id="xtick_116">
     <g id="line2d_133"/>
    </g>
    <g id="xtick_117">
     <g id="line2d_134"/>
     <g id="text_26">
      <!-- 20 -->
      <g style="fill:#262626;" transform="translate(331.427567 252.580187)scale(0.1 -0.1)">
       <use xlink:href="#DejaVuSans-32"/>
       <use x="63.623047" xlink:href="#DejaVuSans-30"/>
      </g>
     </g>
    </g>
    <g id="xtick_118">
     <g id="line2d_135"/>
    </g>
    <g id="xtick_119">
     <g id="line2d_136"/>
    </g>
    <g id="xtick_120">
     <g id="line2d_137"/>
    </g>
    <g id="xtick_121">
     <g id="line2d_138"/>
    </g>
    <g id="xtick_122">
     <g id="line2d_139"/>
    </g>
    <g id="xtick_123">
     <g id="line2d_140"/>
    </g>
    <g id="xtick_124">
     <g id="line2d_141"/>
     <g id="text_27">
      <!-- 27 -->
      <g style="fill:#262626;" transform="translate(373.387376 252.580187)scale(0.1 -0.1)">
       <use xlink:href="#DejaVuSans-32"/>
       <use x="63.623047" xlink:href="#DejaVuSans-37"/>
      </g>
     </g>
    </g>
    <g id="xtick_125">
     <g id="line2d_142"/>
    </g>
    <g id="xtick_126">
     <g id="line2d_143"/>
    </g>
    <g id="xtick_127">
     <g id="line2d_144"/>
    </g>
    <g id="xtick_128">
     <g id="line2d_145"/>
    </g>
    <g id="xtick_129">
     <g id="line2d_146"/>
    </g>
    <g id="xtick_130">
     <g id="line2d_147"/>
    </g>
    <g id="xtick_131">
     <g id="line2d_148"/>
     <g id="text_28">
      <!-- 04 -->
      <g style="fill:#262626;" transform="translate(415.347185 252.580187)scale(0.1 -0.1)">
       <use xlink:href="#DejaVuSans-30"/>
       <use x="63.623047" xlink:href="#DejaVuSans-34"/>
      </g>
     </g>
    </g>
    <g id="xtick_132">
     <g id="line2d_149"/>
    </g>
   </g>
   <g id="matplotlib.axis_4">
    <g id="ytick_5">
     <g id="line2d_150">
      <path clip-path="url(#p91fde4cafc)" d="M 56.959063 235.407223 
L 432.799062 235.407223 
" style="fill:none;stroke:#cccccc;stroke-linecap:round;"/>
     </g>
     <g id="line2d_151"/>
     <g id="text_29">
      <!-- −0.15 -->
      <defs>
       <path d="M 10.59375 35.5 
L 73.1875 35.5 
L 73.1875 27.203125 
L 10.59375 27.203125 
z
" id="DejaVuSans-2212"/>
       <path d="M 10.6875 12.40625 
L 21 12.40625 
L 21 0 
L 10.6875 0 
z
" id="DejaVuSans-2e"/>
       <path d="M 10.796875 72.90625 
L 49.515625 72.90625 
L 49.515625 64.59375 
L 19.828125 64.59375 
L 19.828125 46.734375 
Q 21.96875 47.46875 24.109375 47.828125 
Q 26.265625 48.1875 28.421875 48.1875 
Q 40.625 48.1875 47.75 41.5 
Q 54.890625 34.8125 54.890625 23.390625 
Q 54.890625 11.625 47.5625 5.09375 
Q 40.234375 -1.421875 26.90625 -1.421875 
Q 22.3125 -1.421875 17.546875 -0.640625 
Q 12.796875 0.140625 7.71875 1.703125 
L 7.71875 11.625 
Q 12.109375 9.234375 16.796875 8.0625 
Q 21.484375 6.890625 26.703125 6.890625 
Q 35.15625 6.890625 40.078125 11.328125 
Q 45.015625 15.765625 45.015625 23.390625 
Q 45.015625 31 40.078125 35.4375 
Q 35.15625 39.890625 26.703125 39.890625 
Q 22.75 39.890625 18.8125 39.015625 
Q 14.890625 38.140625 10.796875 36.28125 
z
" id="DejaVuSans-35"/>
      </defs>
      <g style="fill:#262626;" transform="translate(22.81375 239.206442)scale(0.1 -0.1)">
       <use xlink:href="#DejaVuSans-2212"/>
       <use x="83.789062" xlink:href="#DejaVuSans-30"/>
       <use x="147.412109" xlink:href="#DejaVuSans-2e"/>
       <use x="179.199219" xlink:href="#DejaVuSans-31"/>
       <use x="242.822266" xlink:href="#DejaVuSans-35"/>
      </g>
     </g>
    </g>
    <g id="ytick_6">
     <g id="line2d_152">
      <path clip-path="url(#p91fde4cafc)" d="M 56.959063 196.195022 
L 432.799062 196.195022 
" style="fill:none;stroke:#cccccc;stroke-linecap:round;"/>
     </g>
     <g id="line2d_153"/>
     <g id="text_30">
      <!-- −0.10 -->
      <g style="fill:#262626;" transform="translate(22.81375 199.994241)scale(0.1 -0.1)">
       <use xlink:href="#DejaVuSans-2212"/>
       <use x="83.789062" xlink:href="#DejaVuSans-30"/>
       <use x="147.412109" xlink:href="#DejaVuSans-2e"/>
       <use x="179.199219" xlink:href="#DejaVuSans-31"/>
       <use x="242.822266" xlink:href="#DejaVuSans-30"/>
      </g>
     </g>
    </g>
    <g id="ytick_7">
     <g id="line2d_154">
      <path clip-path="url(#p91fde4cafc)" d="M 56.959063 156.982822 
L 432.799062 156.982822 
" style="fill:none;stroke:#cccccc;stroke-linecap:round;"/>
     </g>
     <g id="line2d_155"/>
     <g id="text_31">
      <!-- −0.05 -->
      <g style="fill:#262626;" transform="translate(22.81375 160.782041)scale(0.1 -0.1)">
       <use xlink:href="#DejaVuSans-2212"/>
       <use x="83.789062" xlink:href="#DejaVuSans-30"/>
       <use x="147.412109" xlink:href="#DejaVuSans-2e"/>
       <use x="179.199219" xlink:href="#DejaVuSans-30"/>
       <use x="242.822266" xlink:href="#DejaVuSans-35"/>
      </g>
     </g>
    </g>
    <g id="text_32">
     <!-- Customer Sentiment -->
     <defs>
      <path d="M 64.40625 67.28125 
L 64.40625 56.890625 
Q 59.421875 61.53125 53.78125 63.8125 
Q 48.140625 66.109375 41.796875 66.109375 
Q 29.296875 66.109375 22.65625 58.46875 
Q 16.015625 50.828125 16.015625 36.375 
Q 16.015625 21.96875 22.65625 14.328125 
Q 29.296875 6.6875 41.796875 6.6875 
Q 48.140625 6.6875 53.78125 8.984375 
Q 59.421875 11.28125 64.40625 15.921875 
L 64.40625 5.609375 
Q 59.234375 2.09375 53.4375 0.328125 
Q 47.65625 -1.421875 41.21875 -1.421875 
Q 24.65625 -1.421875 15.125 8.703125 
Q 5.609375 18.84375 5.609375 36.375 
Q 5.609375 53.953125 15.125 64.078125 
Q 24.65625 74.21875 41.21875 74.21875 
Q 47.75 74.21875 53.53125 72.484375 
Q 59.328125 70.75 64.40625 67.28125 
z
" id="DejaVuSans-43"/>
     </defs>
     <g style="fill:#262626;" transform="translate(16.318125 254.227943)rotate(-90)scale(0.12 -0.12)">
      <use xlink:href="#DejaVuSans-43"/>
      <use x="69.824219" xlink:href="#DejaVuSans-75"/>
      <use x="133.203125" xlink:href="#DejaVuSans-73"/>
      <use x="185.302734" xlink:href="#DejaVuSans-74"/>
      <use x="224.511719" xlink:href="#DejaVuSans-6f"/>
      <use x="285.693359" xlink:href="#DejaVuSans-6d"/>
      <use x="383.105469" xlink:href="#DejaVuSans-65"/>
      <use x="444.628906" xlink:href="#DejaVuSans-72"/>
      <use x="485.742188" xlink:href="#DejaVuSans-20"/>
      <use x="517.529297" xlink:href="#DejaVuSans-53"/>
      <use x="581.005859" xlink:href="#DejaVuSans-65"/>
      <use x="642.529297" xlink:href="#DejaVuSans-6e"/>
      <use x="705.908203" xlink:href="#DejaVuSans-74"/>
      <use x="745.117188" xlink:href="#DejaVuSans-69"/>
      <use x="772.900391" xlink:href="#DejaVuSans-6d"/>
      <use x="870.3125" xlink:href="#DejaVuSans-65"/>
      <use x="931.835938" xlink:href="#DejaVuSans-6e"/>
      <use x="995.214844" xlink:href="#DejaVuSans-74"/>
     </g>
    </g>
   </g>
   <g id="line2d_156">
    <path clip-path="url(#p91fde4cafc)" d="M 74.042699 198.210445 
L 80.036957 186.289873 
L 86.031216 191.522579 
L 92.025474 189.996343 
L 98.019732 187.697225 
L 104.013991 186.217821 
L 110.008249 173.967352 
L 116.002507 189.411069 
L 121.996766 181.724824 
L 127.991024 200.164651 
L 133.985283 197.21416 
L 139.979541 193.07439 
L 145.973799 191.070699 
L 151.968058 201.141867 
L 157.962316 216.670349 
L 163.956574 201.381477 
L 169.950833 188.096021 
L 175.945091 199.15215 
L 181.93935 194.371181 
L 187.933608 183.314142 
L 193.927866 164.253195 
L 199.922125 169.97072 
L 205.916383 190.590359 
L 211.910641 170.701457 
L 217.9049 208.019078 
L 223.899158 194.552171 
L 229.893417 221.733639 
L 235.887675 205.876568 
L 241.881933 211.820672 
L 247.876192 228.714374 
L 253.87045 224.600271 
L 259.864708 221.351165 
L 265.858967 236.103694 
L 271.853225 237.089188 
L 277.847484 192.67143 
L 283.841742 216.328306 
L 289.836 211.497763 
L 295.830259 205.689997 
L 301.824517 193.670541 
L 307.818775 190.246718 
L 313.813034 194.536077 
L 319.807292 208.068893 
L 325.801551 162.709437 
L 331.795809 175.606912 
L 337.790067 171.364995 
L 343.784326 186.582388 
L 349.778584 171.264049 
L 355.772842 177.169324 
L 361.767101 169.261612 
L 367.761359 170.779789 
L 373.755618 156.052667 
L 379.749876 179.495866 
L 385.744134 172.530437 
L 391.738393 156.15614 
L 397.732651 159.186891 
L 403.726909 161.90969 
L 409.721168 147.237948 
L 415.715426 156.788746 
" style="fill:none;stroke:#ff0000;stroke-linecap:round;stroke-width:4;"/>
   </g>
   <g id="patch_8">
    <path d="M 56.959063 241.58175 
L 56.959063 142.745386 
" style="fill:none;stroke:#cccccc;stroke-linecap:square;stroke-linejoin:miter;"/>
   </g>
   <g id="patch_9">
    <path d="M 432.799062 241.58175 
L 432.799062 142.745386 
" style="fill:none;stroke:#cccccc;stroke-linecap:square;stroke-linejoin:miter;"/>
   </g>
   <g id="patch_10">
    <path d="M 56.959063 241.58175 
L 432.799063 241.58175 
" style="fill:none;stroke:#cccccc;stroke-linecap:square;stroke-linejoin:miter;"/>
   </g>
   <g id="patch_11">
    <path d="M 56.959063 142.745386 
L 432.799063 142.745386 
" style="fill:none;stroke:#cccccc;stroke-linecap:square;stroke-linejoin:miter;"/>
   </g>
  </g>
 </g>
 <defs>
  <clipPath id="p4c8122f14d">
   <rect height="98.836364" width="375.84" x="56.959063" y="24.14175"/>
  </clipPath>
  <clipPath id="p91fde4cafc">
   <rect height="98.836364" width="375.84" x="56.959063" y="142.745386"/>
  </clipPath>
 </defs>
</svg>
